<?xml version="1.0" encoding="utf-8"?>
<!-- Generator: Adobe Illustrator 24.1.3, SVG Export Plug-In . SVG Version: 6.00 Build 0)  -->
<svg version="1.1" id="Layer_1" xmlns="http://www.w3.org/2000/svg" xmlns:xlink="http://www.w3.org/1999/xlink" x="0px" y="0px"
	 viewBox="0 0 255.12 255.12" style="enable-background:new 0 0 255.12 255.12;" xml:space="preserve">
<style type="text/css">
	.st0{fill:#FFFFFF;}
	.st1{stroke:#000000;stroke-linecap:round;stroke-linejoin:round;stroke-miterlimit:10;}
	.st2{fill:none;stroke:#000000;stroke-width:2;stroke-linejoin:round;stroke-miterlimit:10;}
	.st3{fill:none;stroke:#000000;stroke-width:0.75;stroke-linejoin:round;stroke-miterlimit:10;}
	.st4{fill:none;stroke:#ED2024;stroke-width:2;stroke-linejoin:round;stroke-miterlimit:10;}
	.st5{fill:none;stroke:#000000;stroke-miterlimit:10;}
</style>
<rect class="st0" width="255.12" height="255.12"/>
<g>
	<path class="st1" d="M196.08,103.9c0-39.72-25.41-73.5-60.86-85.99c27.94,18.19,46.42,49.7,46.42,85.53
		c0,37.13-19.84,69.63-49.5,87.47C169.19,179.34,196.08,144.76,196.08,103.9z"/>
</g>
<path d="M37.12,102.23c0.31,0.16,17.53,0.2,25.78,0.21c-2.05-2.17-8.13-8.67-8.13-8.67H28.45C28.45,93.78,36.86,102.1,37.12,102.23z
	"/>
<path d="M37.12,104.66c0.31-0.16,17.53-0.2,25.78-0.21c-2.05,2.17-8.13,8.67-8.13,8.67H28.45
	C28.45,113.11,36.86,104.79,37.12,104.66z"/>
<g>
	<path d="M50.36,230.79H39.02l-1.82,5.31h-8.46l11.62-30.54h8.67l11.62,30.54h-8.46L50.36,230.79z M48.25,224.75l-3.56-10.17
		l-3.56,10.17H48.25z"/>
	<path d="M89.52,236.09h-9.88l-7.57-11.75v11.75h-7.94v-30.54h12.35c1.7,0,3.19,0.25,4.46,0.75c1.27,0.5,2.31,1.18,3.14,2.04
		c0.82,0.86,1.44,1.86,1.86,3c0.42,1.13,0.63,2.35,0.63,3.65c0,2.32-0.56,4.21-1.68,5.65c-1.12,1.45-2.77,2.42-4.96,2.94
		L89.52,236.09z M72.07,219.2h1.5c1.57,0,2.77-0.32,3.6-0.97c0.84-0.65,1.26-1.58,1.26-2.79s-0.42-2.15-1.26-2.79
		c-0.84-0.65-2.04-0.97-3.6-0.97h-1.5V219.2z"/>
	<path d="M104.47,212.28v23.81h-7.94v-23.81h-6.52v-6.72h20.98v6.72H104.47z"/>
	<path d="M131.89,212.28h-9.44v5.1h8.91v6.72h-8.91v5.27h9.44v6.72h-17.37v-30.54h17.37V212.28z"/>
	<path d="M136.22,236.09l5.18-30.54h7.86l6.12,16.28l6.08-16.28h7.86l5.18,30.54h-7.9l-2.63-17.58l-7.21,17.58h-3.16l-6.84-17.58
		l-2.63,17.58H136.22z"/>
	<path d="M176.31,222.2h11.62v6.12h-11.62V222.2z"/>
	<path d="M199.08,205.55v30.54h-7.94v-30.54H199.08z"/>
	<path d="M222.24,213.37c-0.86-0.7-1.73-1.22-2.59-1.56c-0.87-0.34-1.7-0.51-2.51-0.51c-1.03,0-1.86,0.24-2.51,0.73
		c-0.65,0.49-0.97,1.12-0.97,1.9c0,0.54,0.16,0.99,0.49,1.34c0.32,0.35,0.75,0.66,1.28,0.91c0.53,0.26,1.12,0.48,1.78,0.67
		c0.66,0.19,1.32,0.39,1.96,0.61c2.59,0.86,4.49,2.02,5.69,3.46c1.2,1.45,1.8,3.33,1.8,5.65c0,1.57-0.26,2.98-0.79,4.25
		c-0.53,1.27-1.3,2.36-2.31,3.26c-1.01,0.91-2.25,1.61-3.73,2.11c-1.47,0.5-3.14,0.75-5,0.75c-3.86,0-7.44-1.15-10.73-3.44l3.4-6.4
		c1.19,1.05,2.36,1.84,3.52,2.35c1.16,0.51,2.31,0.77,3.44,0.77c1.3,0,2.26-0.3,2.9-0.89c0.63-0.59,0.95-1.27,0.95-2.03
		c0-0.46-0.08-0.86-0.24-1.19c-0.16-0.34-0.43-0.65-0.81-0.93c-0.38-0.28-0.87-0.55-1.48-0.79c-0.61-0.24-1.34-0.51-2.21-0.81
		c-1.03-0.32-2.03-0.68-3.02-1.07c-0.99-0.39-1.86-0.91-2.63-1.56c-0.77-0.65-1.39-1.46-1.86-2.45c-0.47-0.99-0.71-2.23-0.71-3.75
		c0-1.51,0.25-2.88,0.75-4.11c0.5-1.23,1.2-2.28,2.11-3.16c0.9-0.88,2.01-1.56,3.32-2.05s2.77-0.73,4.39-0.73
		c1.51,0,3.09,0.21,4.74,0.63c1.65,0.42,3.23,1.03,4.74,1.84L222.24,213.37z"/>
</g>
<line class="st2" x1="61.82" y1="103.45" x2="207.42" y2="103.45"/>
<line class="st3" x1="78.16" y1="139.19" x2="78.16" y2="67.71"/>
<polygon points="228.44,103.45 200.42,92.51 207.42,103.45 200.42,114.39 "/>
<path class="st4" d="M78.16,103.45c1.45,0.59,3.07-0.15,4.28-1.3s2.14-2.69,3.22-4.03c0.76-0.95,1.82-1.86,2.85-1.45
	c0.83,0.33,1.3,1.39,1.67,2.37c2.14,5.62,3.32,25.58,6.91,25.58c4.88,0,11.98-63.41,16.75-63.41c4.17,0,10.81,33.08,14.99,33.08
	c3.4,0,6.58-11.7,10.59-11.82c3.32-0.1,7.51,9.87,10.13,12.87c1.62,1.86,3.28,3.75,5.28,4.92c2,1.17,4.44,1.51,6.4,0.24
	c1.74-1.13,3.44-3.51,5.26-2.58c0.69,0.35,1.16,1.13,1.56,1.91c0.7,1.38,1.24,2.89,2.08,4.15c0.84,1.26,2.08,2.26,3.4,2.11
	c2-0.22,3.55-1.71,5.16-3.2c1.6-1.49,3.59-2.88,5.52-2.21c1.56,0.54,2.64,2.29,4.08,3.19c1.05,0.66,2.26,0.85,3.43,1.03
	c0.81,0.12,1.68,0.24,2.41-0.22c0.66-0.41,1.1-1.23,1.73-1.73c0.89-0.7,2.01-0.65,3.06-0.59c1.7,0.11,3.02,0.32,4.63,1.01"/>
<line class="st5" x1="132.15" y1="190.91" x2="61.82" y2="103.45"/>
<line class="st5" x1="135.21" y1="17.91" x2="61.82" y2="103.45"/>
</svg>
